<?xml version="1.0" encoding="utf-8"?>
<!-- Generator: Adobe Illustrator 23.0.2, SVG Export Plug-In . SVG Version: 6.00 Build 0)  -->
<svg version="1.1" id="Camada_1" xmlns="http://www.w3.org/2000/svg" xmlns:xlink="http://www.w3.org/1999/xlink" x="0px" y="0px"
	 viewBox="0 0 1000 1000" style="enable-background:new 0 0 1000 1000;" xml:space="preserve">
<style type="text/css">
	.st0{fill:#211915;}
</style>
<g>
	<path class="st0" d="M466.77,527.39c-6.82-2.8-15.7-4.27-25.68-4.27c-30.18,0-50.46,19.83-50.46,49.35
		c0,26.29,14.82,41.99,39.65,41.99c7.46,0,13.92-0.78,19.75-2.38l0.84-0.23l3.32-20.21l-2.52,1.51c-5.7,3.42-11.37,5.08-17.34,5.08
		c-15.14,0-23.06-12.96-23.06-25.76c0-19.5,12.76-33.13,31.04-33.13c10.35,0,16.26,3,18.87,4.79l1.54,1.06l5.19-17.33L466.77,527.39
		z"/>
	<path class="st0" d="M509.34,598.22c-15.14,0-23.06-12.96-23.06-25.76c0-19.5,12.76-33.13,31.04-33.13c10.35,0,16.26,3,18.87,4.79
		l1.54,1.06l5.18-17.33l-1.14-0.47c-6.82-2.8-15.7-4.27-25.68-4.27c-30.18,0-50.45,19.83-50.45,49.35
		c0,26.29,14.82,41.99,39.65,41.99c7.46,0,13.92-0.78,19.75-2.38l0.84-0.23l3.32-20.21l-2.52,1.51
		C520.98,596.56,515.3,598.22,509.34,598.22z"/>
	<path class="st0" d="M609.75,546.2c0-9.66-3.85-15.87-11.76-18.99c-6.67-2.63-15.05-2.61-23.17-2.62h-21.91l-18.49,88.39h19.96
		l7.49-35.59h5.4c6.78,0,7.42,3.48,8.7,10.43c0.23,1.25,0.47,2.58,0.77,3.95l4.4,21.21h20.87l-8.62-36.16
		c-0.73-3.1-2.19-5.45-4.24-6.96C601.84,567.63,609.75,558.79,609.75,546.2z M589.11,548.4c0,11.1-11.91,12.75-19.01,12.75h-4.59
		l4.22-20.35h6.01C584.06,540.81,589.11,541.32,589.11,548.4z"/>
</g>
<g>
	<path class="st0" d="M316.94,648.99h15.78c8.92,0,11.71,6.01,11.71,10.56c0,6.74-5.22,9.41-7.65,9.71v0.12
		c4.79,0.97,8.5,3.58,8.5,10.26c0,10.74-10.62,11.71-13.11,11.71h-15.23V648.99z M326.53,666.23h2.43c5.71,0,5.89-4.43,5.89-5.22
		c0-1.52-0.85-5.1-5.71-5.1h-2.61V666.23z M326.53,684.2h2.79c1.34,0,6.37,0,6.37-5.46c0-3.7-2.06-5.58-5.34-5.58h-3.82V684.2z"/>
	<path class="st0" d="M368.54,648.27c12.2,0,18.03,9.47,18.03,21.91s-5.83,21.91-18.03,21.91c-12.2,0-17.97-9.47-17.97-21.91
		S356.34,648.27,368.54,648.27z M368.54,684.92c5.77,0,7.83-6.62,7.83-14.75s-2.06-14.75-7.83-14.75c-5.77,0-7.77,6.62-7.77,14.75
		S362.77,684.92,368.54,684.92z"/>
	<path class="st0" d="M427.96,657.86h-0.12l-9.53,33.5h-6.56l-9.16-33.5h-0.12v33.5h-9.1v-42.36h14.99l6.86,27.25h0.12l7.4-27.25
		h14.32v42.36h-9.1V657.86z"/>
	<path class="st0" d="M464.81,656.64h-9.23v-7.65h28.41v7.65h-9.23v34.72h-9.95V656.64z"/>
	<path class="st0" d="M488.96,648.99h15.54c6.98,0,12.93,3.09,12.93,10.92c0,1.76-0.24,8.74-8.44,10.38v0.12
		c3.1,0.36,4.31,2.06,5.89,7.1l4.37,13.84h-10.44l-3.28-11.35c-1.64-5.77-2.97-5.77-6.62-5.77v17.12h-9.95V648.99z M498.55,667.08
		h3.1c3.82,0,5.83-2.55,5.83-5.58c0-1.76-0.55-5.34-5.89-5.34h-3.03V667.08z"/>
	<path class="st0" d="M547.11,681.89h-13.29l-2.91,9.47h-9.59l14.08-42.36h10.92l13.6,42.36h-10.2L547.11,681.89z M540.8,657.13
		h-0.12l-5.04,17.6h9.53L540.8,657.13z"/>
	<path class="st0" d="M579.89,677.52c0,8.07-2.79,14.57-11.9,14.57c-2.25,0-5.16-0.61-6.68-1.21l0.36-8.07
		c1.09,0.36,2.12,0.79,3.46,0.79c3.58,0,4.79-2.55,4.79-6.07v-28.53h9.95V677.52z"/>
	<path class="st0" d="M587.9,648.99h24.46v7.4h-14.87v9.47h14.14v7.4h-14.14v10.68h15.6v7.4H587.9V648.99z"/>
	<path class="st0" d="M625.6,656.64h-9.23v-7.65h28.41v7.65h-9.23v34.72h-9.95V656.64z"/>
	<path class="st0" d="M665.41,648.27c12.2,0,18.03,9.47,18.03,21.91s-5.83,21.91-18.03,21.91c-12.2,0-17.97-9.47-17.97-21.91
		S653.21,648.27,665.41,648.27z M665.41,684.92c5.77,0,7.83-6.62,7.83-14.75s-2.06-14.75-7.83-14.75c-5.77,0-7.77,6.62-7.77,14.75
		S659.65,684.92,665.41,684.92z"/>
</g>
<g>
	<g>
		<path class="st0" d="M486.81,347.66c5.25-2.34,10.08-0.81,11.04-0.47l38.52,13.65c3.36,1.18,5.68,4.28,5.92,7.88l0.13,2.02
			c9.22,2.11,19.26,6.26,23.81,8.25c0.96,0.42,1.84,0.98,2.62,1.67v-11.11c0-4.74-3.22-10.31-7.32-12.68l-54.02-31.19
			c-1.99-1.15-4.59-1.78-7.32-1.78c-2.74,0-5.33,0.63-7.32,1.78l-54.02,31.19c-4.1,2.37-7.32,7.94-7.32,12.68v1.42L486.81,347.66z"
			/>
	</g>
	<g>
		<path class="st0" d="M419.02,373.68l4.96-2.09v-6.89c0-4.38,3.09-9.73,6.88-11.92l62.45-36.06c1.83-1.05,4.27-1.63,6.88-1.63
			c2.61,0,5.06,0.58,6.88,1.63l62.45,36.06c3.8,2.19,6.88,7.54,6.88,11.92v24.53c2.65,4.75,4.81,9.36,6.32,12.81V364.7
			c0-6.61-4.32-14.09-10.04-17.39l-62.45-36.06c-2.77-1.6-6.34-2.48-10.04-2.48c-3.7,0-7.27,0.88-10.04,2.48L427.7,347.3
			c-5.73,3.31-10.04,10.78-10.04,17.39v9.71C418.08,374.13,418.53,373.88,419.02,373.68z"/>
		<path class="st0" d="M518.98,477.91l-11.9,6.87c-1.84,1.05-4.28,1.63-6.89,1.63c-2.61,0-5.05-0.58-6.88-1.63l0,0l-14.11-8.15
			c-4.45-0.08-8.78-0.13-12.94-0.17l23.89,13.79l0,0c2.78,1.6,6.34,2.48,10.04,2.48c3.7,0,7.26-0.88,10.04-2.48l20.25-11.69
			C526.71,478.33,522.87,478.11,518.98,477.91z"/>
	</g>
	<g>
		<path class="st0" d="M531.41,378.58c-0.14,0.22-0.16,0.5-0.06,0.74c1.55,3.46,6.22,14.15,8.56,22.81c0.2,0.71,0.71,1.27,1.38,1.49
			c3.57,1.15,15.53,4.75,29.94,6.38c0.18,0.02,0.34-0.06,0.45-0.21c0.1-0.15,0.12-0.34,0.06-0.51c-1.19-2.94-5.54-13.28-11.14-21.41
			c-0.38-0.55-0.9-0.99-1.49-1.25c-3.67-1.6-17.71-7.54-27.07-8.35C531.79,378.24,531.56,378.37,531.41,378.58z"/>
		<path class="st0" d="M522.95,401.68c0.81,0.45,1.23,1.1,1.45,1.65c0.24,0.62,0.85,0.96,1.48,0.84l8.56-1.67
			c0.38-0.07,0.71-0.32,0.91-0.68c0.2-0.35,0.24-0.78,0.12-1.17c-1.31-4.21-4.99-15.87-7.27-20.89c-0.27-0.59-0.89-0.91-1.5-0.77
			c-3.58,0.84-15.69,3.76-19.71,5.55c-0.49,0.22-0.81,0.73-0.82,1.29c-0.04,2.85-0.14,11.91-0.11,16.9c0.01,0.43,0.19,0.83,0.51,1.1
			c0.32,0.27,0.74,0.37,1.13,0.28C511.66,403.19,521.6,400.93,522.95,401.68z"/>
		<path class="st0" d="M425.81,390.82l51.19-16.28l-51.39,23.15l-0.23,6.3l51.3-12.89l-51.52,20.99l-0.24,5.74l50.99-9.88
			l-51.19,17.3l-0.25,6.19l51.12-6.4l-52.66,11.23l6.48,2.74c-1.52,5.01-2.03,14.85-2.03,14.85l3.57,0.14c0,3.4,1.56,5.4,3.01,6.54
			h15.67c2.59-2.49,3.27-7.66,3.27-7.66h2.25c0,0,0.39,1.96,2.65,1.96c2.25,0,3.3-1.26,3.3-1.26h2.52c0.33,3.32,1.49,5.67,2.89,6.96
			h14.12c2.89-3.05,3.5-11.02,3.5-11.02l10.85-1.12l-0.13,4.48h5.59c0.46,3.38,1.73,5.87,3.24,7.66h21.14
			c2.18-3.48,2.85-8.08,2.85-8.08h8.34c0,0,0.28,4.76,3.99,8.08h17.32c4.08-4.4,3.42-11.86,3.42-11.86l19.18,0.28
			c0,0-0.72-10.52-1.26-11.22c-0.76-0.98-2.45-1.12-2.45-1.12s-0.31-4.1-0.76-8.66c-6.81-1.99-32.78-4.79-33.63-4.89
			c-0.89-0.1-3.08,0.42-3.08,0.42l0.39,10.46l-13.29,0.21c-4.17-10.2-13.79-7.88-13.79-7.88l-14.59,2l4.13-3.35
			c-0.43-11.19-0.26-39.86,0.74-41.01c1.09-1.26,24.6-7.68,26.29-7.99c1.26-0.24,3.96,0.06,5.24,0.22l-0.27-4.17
			c-0.07-1-0.7-1.87-1.6-2.19l-36.03-12.77c-0.75-0.26-1.57-0.13-2.21,0.36c-0.64,0.49-1.02,1.27-1.02,2.11v38.17l-2.31,0.19v-40.1
			c0-0.12-0.07-0.25-0.16-0.34c-0.1-0.08-0.22-0.11-0.31-0.07l-63.91,27.08L425.81,390.82z M548.22,426.9
			c1.77-0.04,3.26,2.33,3.31,5.3c0.05,2.96-1.34,5.4-3.12,5.44c-1.77,0.04-3.25-2.34-3.31-5.31
			C545.05,429.36,546.44,426.94,548.22,426.9z M570.39,428.49c1.77-0.04,3.26,2.33,3.31,5.3c0.05,2.96-1.34,5.4-3.12,5.44
			c-1.77,0.04-3.25-2.34-3.31-5.31C567.22,430.95,568.61,428.52,570.39,428.49z"/>
	</g>
</g>
</svg>
