<?xml version="1.0" encoding="utf-8"?>
<!-- Generator: Adobe Illustrator 23.0.2, SVG Export Plug-In . SVG Version: 6.00 Build 0)  -->
<svg version="1.1" id="Camada_1" xmlns="http://www.w3.org/2000/svg" xmlns:xlink="http://www.w3.org/1999/xlink" x="0px" y="0px"
	 viewBox="0 0 1000 1000" style="enable-background:new 0 0 1000 1000;" xml:space="preserve">
<style type="text/css">
	.st0{fill:#054866;}
</style>
<g>
	<path class="st0" d="M255.55,478.7c-5.01-2.05-11.54-3.14-18.86-3.14c-22.17,0-37.07,14.57-37.07,36.25
		c0,19.31,10.89,30.84,29.13,30.84c5.48,0,10.22-0.57,14.51-1.75l0.62-0.17l2.44-14.84l-1.85,1.11c-4.19,2.51-8.36,3.73-12.74,3.73
		c-11.12,0-16.94-9.52-16.94-18.93c0-14.33,9.38-24.34,22.8-24.34c7.6,0,11.95,2.21,13.86,3.52l1.13,0.78l3.81-12.73L255.55,478.7z"
		/>
	<path class="st0" d="M286.82,530.74c-11.12,0-16.94-9.52-16.94-18.93c0-14.33,9.38-24.34,22.8-24.34c7.6,0,11.95,2.21,13.86,3.52
		l1.13,0.78l3.81-12.73l-0.84-0.34c-5.01-2.05-11.54-3.14-18.86-3.14c-22.17,0-37.07,14.57-37.07,36.25
		c0,19.31,10.89,30.84,29.13,30.84c5.48,0,10.22-0.57,14.51-1.75l0.62-0.17l2.44-14.84l-1.85,1.11
		C295.37,529.51,291.21,530.74,286.82,530.74z"/>
	<path class="st0" d="M360.59,492.51c0-7.1-2.83-11.66-8.64-13.95c-4.9-1.93-11.05-1.92-17.02-1.93h-16.1l-13.58,64.93h14.67
		l5.5-26.15h3.97c4.98,0,5.45,2.56,6.39,7.66c0.17,0.92,0.35,1.89,0.57,2.9l3.23,15.58h15.33l-6.33-26.57
		c-0.54-2.27-1.61-4-3.11-5.12C354.78,508.26,360.59,501.77,360.59,492.51z M345.42,494.14c0,8.15-8.75,9.37-13.97,9.37h-3.37
		l3.1-14.95h4.42C341.71,488.56,345.42,488.93,345.42,494.14z"/>
</g>
<g>
	<path class="st0" d="M393.89,478.53h18.7c9.84,0,19.06,3.61,19.06,15.08c0,7.68-6.14,13.82-13.46,14.99v0.18
		c7.04,1.08,10.12,6.5,10.12,13.28c0,18.06-20.23,19.51-29.62,19.51H380.7L393.89,478.53z M394.88,531.64h4.34
		c7.77,0,16.44-0.9,16.44-10.66c0-6.59-6.14-7.59-12.92-7.59h-4.06L394.88,531.64z M400.66,504h4.97c6.41,0,13.37-1.81,13.37-9.21
		c0-6.05-5.78-6.32-10.57-6.32h-4.43L400.66,504z"/>
	<path class="st0" d="M502.37,504.18c0,10.3-3.79,20.32-10.57,27.91c-6.59,7.32-16.17,10.57-26.73,10.57
		c-15.53,0-24.84-11.2-24.84-26.19c0-10.03,3.52-19.78,9.93-27.28c6.86-7.86,15.63-11.74,25.92-11.74
		C493.15,477.44,502.37,487.38,502.37,504.18z M453.41,517.18c0,8.22,4.15,15.54,13.28,15.54c14.45,0,22.49-17.34,22.49-29.9
		c0-8.4-4.34-15.44-13.46-15.44C461,487.38,453.41,504.45,453.41,517.18z"/>
	<path class="st0" d="M520.44,478.53h20.86l4.24,45.43h0.18l24.84-45.43h21.04l-13.46,63.04h-13.37l11.92-52.2h-0.18l-28.54,52.2
		h-12.1l-5.06-52.2h-0.18l-11.56,52.2h-12.01L520.44,478.53z"/>
	<path class="st0" d="M624.4,478.53h48.68l-2.08,9.93h-17.79l-11.47,53.11h-13.19l11.47-53.11h-17.79L624.4,478.53z"/>
	<path class="st0" d="M679.95,478.53h14.9c11.65,0,25.11-0.18,25.11,14.9c0,10.84-8.13,16.62-18.43,16.8v0.18
		c3.43,0.18,5.6,2.35,6.41,5.78l6.05,25.38h-13.28l-3.07-14.81c-1.44-6.68-1.08-11.38-7.95-11.38h-4.79l-5.51,26.19h-12.64
		L679.95,478.53z M687.18,505.44h4.61c6.77,0,14.99-2.08,14.99-10.39c0-6.59-5.69-6.59-10.84-6.59h-5.24L687.18,505.44z"/>
	<path class="st0" d="M754.47,478.53h14l11.47,63.04h-12.64l-2.17-14.45H738.3l-8.04,14.45h-14L754.47,478.53z M743.9,517.18h19.51
		l-3.97-27.46h-0.36L743.9,517.18z"/>
	<path class="st0" d="M822.39,478.53l-8.85,42.81c-2.44,12.64-6.5,21.32-20.77,21.32c-3.52,0-7.14-0.36-10.57-1.26l2.89-10.75
		c1.54,0.54,3.52,0.99,5.78,0.99c6.68,0,8.85-4.88,10.03-10.66l8.85-42.45H822.39z"/>
	<path class="st0" d="M836.48,478.53h37.12l-1.9,9.93h-24.66L843.8,504h22.04l-1.99,9.93h-22.13l-3.7,17.7h24.93l-2.17,9.93H823.2
		L836.48,478.53z"/>
	<path class="st0" d="M880.38,478.53h48.68l-2.08,9.93h-17.79l-11.47,53.11h-13.19l11.47-53.11h-17.79L880.38,478.53z"/>
	<path class="st0" d="M989.22,504.18c0,10.3-3.79,20.32-10.57,27.91c-6.59,7.32-16.17,10.57-26.73,10.57
		c-15.54,0-24.84-11.2-24.84-26.19c0-10.03,3.52-19.78,9.93-27.28c6.86-7.86,15.63-11.74,25.92-11.74
		C980.01,477.44,989.22,487.38,989.22,504.18z M940.27,517.18c0,8.22,4.15,15.54,13.28,15.54c14.45,0,22.49-17.34,22.49-29.9
		c0-8.4-4.33-15.44-13.46-15.44C947.85,487.38,940.27,504.45,940.27,517.18z"/>
</g>
<g>
	<g>
		<path class="st0" d="M79.79,446.76c5.25-2.34,10.08-0.81,11.04-0.47l38.52,13.65c3.36,1.18,5.68,4.28,5.92,7.88l0.13,2.02
			c9.22,2.11,19.26,6.26,23.81,8.25c0.96,0.42,1.84,0.98,2.62,1.67v-11.11c0-4.74-3.22-10.31-7.32-12.68l-54.02-31.19
			c-1.99-1.15-4.59-1.78-7.32-1.78c-2.74,0-5.33,0.63-7.32,1.78l-54.02,31.19c-4.1,2.37-7.32,7.94-7.32,12.68v1.42L79.79,446.76z"/>
	</g>
	<g>
		<path class="st0" d="M12,472.78l4.96-2.09v-6.89c0-4.38,3.09-9.73,6.88-11.92l62.45-36.06c1.83-1.05,4.27-1.63,6.88-1.63
			c2.61,0,5.06,0.58,6.88,1.63l62.45,36.06c3.8,2.19,6.88,7.54,6.88,11.92v24.53c2.65,4.75,4.81,9.36,6.32,12.81V463.8
			c0-6.61-4.32-14.09-10.04-17.39l-62.45-36.06c-2.77-1.6-6.34-2.48-10.04-2.48c-3.7,0-7.27,0.88-10.04,2.48L20.68,446.4
			c-5.73,3.31-10.04,10.78-10.04,17.39v9.71C11.06,473.23,11.52,472.98,12,472.78z"/>
		<path class="st0" d="M111.97,577.02l-11.9,6.87c-1.84,1.05-4.28,1.63-6.89,1.63c-2.61,0-5.05-0.58-6.88-1.63l0,0l-14.11-8.15
			c-4.45-0.08-8.78-0.13-12.94-0.17l23.89,13.79l0,0c2.78,1.6,6.34,2.48,10.04,2.48c3.7,0,7.26-0.88,10.04-2.48l20.25-11.69
			C119.7,577.43,115.85,577.21,111.97,577.02z"/>
	</g>
	<g>
		<path class="st0" d="M124.39,477.68c-0.14,0.22-0.16,0.5-0.06,0.74c1.55,3.46,6.22,14.15,8.56,22.81c0.2,0.71,0.71,1.27,1.38,1.49
			c3.57,1.15,15.53,4.75,29.94,6.38c0.18,0.02,0.34-0.06,0.45-0.21c0.1-0.15,0.12-0.34,0.06-0.51c-1.19-2.94-5.54-13.28-11.14-21.41
			c-0.38-0.55-0.9-0.99-1.49-1.25c-3.67-1.6-17.71-7.54-27.07-8.35C124.78,477.34,124.54,477.47,124.39,477.68z"/>
		<path class="st0" d="M115.94,500.78c0.81,0.45,1.23,1.1,1.45,1.65c0.24,0.62,0.85,0.96,1.48,0.84l8.56-1.67
			c0.38-0.07,0.71-0.32,0.91-0.68c0.2-0.35,0.24-0.78,0.12-1.17c-1.31-4.21-4.99-15.87-7.27-20.89c-0.27-0.59-0.89-0.91-1.5-0.77
			c-3.58,0.84-15.69,3.76-19.71,5.55c-0.49,0.22-0.81,0.73-0.82,1.29c-0.04,2.85-0.14,11.91-0.11,16.9c0.01,0.43,0.19,0.83,0.51,1.1
			c0.32,0.27,0.74,0.37,1.13,0.28C104.64,502.29,114.59,500.03,115.94,500.78z"/>
		<path class="st0" d="M18.79,489.92l51.19-16.28l-51.39,23.15l-0.23,6.3l51.3-12.89l-51.52,20.99l-0.24,5.74l50.99-9.88
			l-51.19,17.3l-0.25,6.19l51.12-6.4l-52.66,11.23l6.48,2.74c-1.52,5.01-2.03,14.85-2.03,14.85l3.57,0.14c0,3.4,1.56,5.4,3.01,6.54
			h15.67c2.59-2.49,3.27-7.66,3.27-7.66h2.25c0,0,0.39,1.96,2.65,1.96c2.25,0,3.3-1.26,3.3-1.26h2.52c0.33,3.32,1.49,5.67,2.89,6.96
			h14.12c2.89-3.05,3.5-11.02,3.5-11.02l10.85-1.12l-0.13,4.48h5.59c0.46,3.38,1.73,5.87,3.24,7.66h21.14
			c2.18-3.48,2.85-8.08,2.85-8.08h8.34c0,0,0.28,4.76,3.99,8.08h17.32c4.08-4.4,3.42-11.86,3.42-11.86l19.18,0.28
			c0,0-0.72-10.52-1.26-11.22c-0.76-0.98-2.45-1.12-2.45-1.12s-0.31-4.1-0.76-8.66c-6.81-1.99-32.78-4.79-33.63-4.89
			c-0.89-0.1-3.08,0.42-3.08,0.42l0.39,10.46l-13.29,0.21c-4.17-10.2-13.79-7.88-13.79-7.88l-14.59,2l4.13-3.35
			c-0.43-11.19-0.26-39.86,0.74-41.01c1.09-1.26,24.6-7.68,26.29-7.99c1.26-0.24,3.96,0.06,5.24,0.22l-0.27-4.17
			c-0.07-1-0.7-1.87-1.6-2.19l-36.03-12.77c-0.75-0.26-1.57-0.13-2.21,0.36c-0.64,0.49-1.02,1.27-1.02,2.11v38.17l-2.31,0.19v-40.1
			c0-0.12-0.07-0.25-0.16-0.34c-0.1-0.08-0.22-0.11-0.31-0.07l-63.91,27.08L18.79,489.92z M141.21,526c1.77-0.04,3.26,2.33,3.31,5.3
			c0.05,2.96-1.34,5.4-3.12,5.44c-1.77,0.04-3.25-2.34-3.31-5.31C138.03,528.46,139.42,526.04,141.21,526z M163.37,527.59
			c1.77-0.04,3.26,2.33,3.31,5.3c0.05,2.96-1.34,5.4-3.12,5.44c-1.77,0.04-3.25-2.34-3.31-5.31
			C160.2,530.05,161.59,527.62,163.37,527.59z"/>
	</g>
</g>
</svg>
